<svg id="Capa_1" data-name="Capa 1" xmlns="http://www.w3.org/2000/svg" viewBox="0 0 600 600"><defs><style>.cls-1{fill:#fff;}</style></defs><path class="cls-1" d="M65.79,383.45A224.62,224.62,0,1,1,383.46,65.8a224.67,224.67,0,0,1,15.25,300.8l0,0c-.81,1-1.64,2-2.48,3L418,391.39l.89-.89a9.31,9.31,0,0,1,13.16,0L591.41,549.87a29.38,29.38,0,0,1-41.55,41.54L390.51,432a9.28,9.28,0,0,1,0-13.15l.88-.89L369.6,396.2c-1,.84-2,1.67-3,2.49l0,0A224.67,224.67,0,0,1,65.79,383.45Zm301.52-16.14c78.69-78.68,78.69-206.7,0-285.38s-206.7-78.67-285.39,0-78.67,206.7,0,285.37S288.63,446,367.31,367.31Z"/><path class="cls-1" d="M212.14,63.69a11.34,11.34,0,0,1,11.34-11.34A172.33,172.33,0,0,1,387.3,171.17a11.34,11.34,0,0,1-21.56,7A149.68,149.68,0,0,0,223.48,75,11.34,11.34,0,0,1,212.14,63.69Z"/></svg>