<svg id="Capa_1" data-name="Capa 1" xmlns="http://www.w3.org/2000/svg" viewBox="0 0 600 600">
  <defs>
    <style>
      .cls-1 {
        fill: #b17456;
      }
    </style>
  </defs>
  <g>
    <path class="cls-1" d="M211.45,389.85c44.05,0,79.11-33.76,82.71-76.41H128.76C131.45,356.09,167.41,389.85,211.45,389.85Z"/>
    <path class="cls-1" d="M86.51,509.82a5.4,5.4,0,0,1,10.79,0v39.1H322v-39.1a5.4,5.4,0,0,1,10.8,0v39.1h44.94V489.38a201.48,201.48,0,0,0-166.31-88c-67.41,0-132.13,33.77-169,88v59.54H86.51Z"/>
    <path class="cls-1" d="M229.44,186.37c-1.8,0-3.6,0-4.5.88a6.8,6.8,0,0,0-1.8,4.44v24a11.69,11.69,0,0,1-23.37,0v-24a6.8,6.8,0,0,0-1.79-4.44,4,4,0,0,0-4.5-.88A92.93,92.93,0,0,0,118,271.67H104.48a5.33,5.33,0,1,0,0,10.66h214a5.33,5.33,0,1,0,0-10.66H304.94A92.91,92.91,0,0,0,229.44,186.37Z"/>
    <path class="cls-1" d="M553,216.57l-46.74-7.1A86.36,86.36,0,0,0,500.91,189l36.85-28.44a6.84,6.84,0,0,0,1.81-7.1l-13.49-22.22a6,6,0,0,0-7.19-2.67l-44.05,16.88a123.85,123.85,0,0,0-15.28-15.1l17.07-43.54c.91-2.67,0-5.33-2.69-7.11L451.47,66.4c-2.7-1.78-5.4-.89-7.2,1.78l-28.76,36.43a78.69,78.69,0,0,0-20.67-5.33l-7.2-46.21c0-2.66-2.69-4.44-5.39-4.44H357.08c-2.69,0-5.39,1.78-5.39,4.44L344.5,99.28c-7.2.89-13.49,3.55-20.68,5.33L294.16,69.07A7,7,0,0,0,287,67.29L264.49,80.62c-2.69,1.78-3.59,4.44-2.69,7.11l17.07,43.54a168.45,168.45,0,0,0-18,17.77c-1.8,2.67-1.8,6.22.9,8s6.29,1.77,8.08-.89c5.4-7.11,12.6-13.33,18.89-18.66,1.79-1.78,2.69-4.44,1.79-6.22L273.48,88.62l14.38-8,28.77,35.54c1.8,1.78,4.5,2.67,6.29,1.78,8.09-3.56,17.08-5.33,26.07-7.11a4.78,4.78,0,0,0,4.5-4.44l7.19-45.32h16.18l7.19,45.32c0,2.66,2.7,4.44,4.49,4.44,9,1.78,18,3.55,26.07,7.11,2.7.89,4.5,0,6.29-1.78l28.77-35.54,14.38,8L447,131.27c-.9,2.66,0,4.44,1.8,6.22,7.19,5.33,13.49,12.44,18.88,18.66,1.8,1.78,4.49,2.66,6.29,1.78L517.09,141l8.09,14.22L489.23,183.7c-1.81,1.77-2.7,4.44-1.81,6.22,3.6,8,5.4,16.88,7.2,25.77a4.79,4.79,0,0,0,4.49,4.44L545,227.24v16l-44,6.22a4.79,4.79,0,0,0-4.5,4.45c-1.79,8.88-3.59,17.77-7.18,25.77-.91,2.66,0,4.44,1.79,6.22l36,28.43-8.08,14.22-43.15-16.88c-2.7-.89-4.49,0-6.29,1.78-5.4,7.1-12.59,13.32-18.88,18.65-1.8,1.78-2.7,4.45-1.8,6.23L465.85,381l-14.38,8L422.7,353.42c-1.8-1.78-4.49-2.66-6.29-1.78-8.09,3.56-17.08,5.34-26.07,7.11a4.78,4.78,0,0,0-4.49,4.44l-7.2,45.33H362.48l-7.2-45.33c0-2.66-2.7-4.44-4.49-4.44a77.92,77.92,0,0,1-20.67-5.33,6.15,6.15,0,0,0-7.2,3.56,6,6,0,0,0,3.6,7.11,145.27,145.27,0,0,0,18.88,4.44l7.18,46.21c0,2.67,2.7,4.44,5.4,4.44h26.07c2.7,0,5.39-1.77,5.39-4.44l7.19-46.21a87.91,87.91,0,0,0,20.68-5.34l28.76,36.44a7,7,0,0,0,7.19,1.78l22.48-13.33a5.93,5.93,0,0,0,2.7-7.11l-17.09-43.54a121.19,121.19,0,0,0,15.28-15.11l44,16.89a6.07,6.07,0,0,0,7.2-2.67l13.48-22.22c1.8-2.66.9-5.33-1.79-7.11l-38.66-26.66a76.36,76.36,0,0,0,5.39-20.43L553,253c2.7,0,4.5-2.66,4.5-5.34V221.91C557.54,219.25,555.74,216.57,553,216.57Z"/>
    <path class="cls-1" d="M382.25,303.66c-2.7.89-5.39,3.55-4.49,6.22s2.7,4.44,5.39,4.44h.9c17.08-2.66,31.46-10.66,44.05-22.21a80.87,80.87,0,0,0,0-115.52,83.16,83.16,0,0,0-116.87,0c-1.79,1.77-1.79,5.33,0,8,1.81,1.78,5.4,1.78,8.1,0a72.2,72.2,0,0,1,100.67,0,70.21,70.21,0,0,1,0,99.52C410.12,294.78,396.63,301,382.25,303.66Z"/>
    <path class="cls-1" d="M498,430.06H448.11v27.12H498Zm-4.91,22.22H453V435h40Z"/>
    <path class="cls-1" d="M532.13,430.06H504.74v27.12h27.39Zm-4.91,22.22H509.65V435h17.57Z"/>
    <path class="cls-1" d="M57.74,346.1a14,14,0,1,0-14.14-14A14.09,14.09,0,0,0,57.74,346.1Zm0-23.1a9.1,9.1,0,1,1-9.23,9.09A9.18,9.18,0,0,1,57.74,323Z"/>
    <path class="cls-1" d="M529.67,473.6a14,14,0,1,0,14.14,14A14.08,14.08,0,0,0,529.67,473.6Zm0,23.1a9.1,9.1,0,1,1,9.24-9.1A9.17,9.17,0,0,1,529.67,496.7Z"/>
    <path class="cls-1" d="M225.84,63.06a14,14,0,1,0,14.14,14A14.08,14.08,0,0,0,225.84,63.06Zm0,23.11a9.11,9.11,0,1,1,9.23-9.11A9.18,9.18,0,0,1,225.84,86.17Z"/>
    <path class="cls-1" d="M166.76,132.15a14.14,14.14,0,1,0,14.13-14A14.09,14.09,0,0,0,166.76,132.15Zm23.37,0a9.24,9.24,0,1,1-9.24-9.09A9.19,9.19,0,0,1,190.13,132.15Z"/>
    <path class="cls-1" d="M105.14,85.28H55.29v27.11h49.85Zm-4.9,22.21h-40V90.18h40Z"/>
    <path class="cls-1" d="M138.4,85.28H111v27.11H138.4Zm-4.9,22.21H115.93V90.18H133.5Z"/>
    <path class="cls-1" d="M473,491.37a30,30,0,1,0,30.32,30C503.36,504.55,490,491.37,473,491.37Zm0,55.1a25.1,25.1,0,1,1,0-50.19c14.49,0,25.41,10.79,25.41,25.1A25.28,25.28,0,0,1,473,546.47Z"/>
    <path class="cls-1" d="M85.61,218.14A36.22,36.22,0,1,0,49,181.92,36.46,36.46,0,0,0,85.61,218.14Zm0-67.53A31.32,31.32,0,1,1,53.9,181.92,31.54,31.54,0,0,1,85.61,150.61Z"/>
  </g>
</svg>
