<svg id="Capa_1" data-name="Capa 1" xmlns="http://www.w3.org/2000/svg" viewBox="0 0 600 600"><defs><style>.cls-1{fill:#b17456;}</style></defs><path class="cls-1" d="M73.25,180a14.75,14.75,0,1,0-14.89-14.74A14.83,14.83,0,0,0,73.25,180Zm0-24.32a9.58,9.58,0,1,1-9.72,9.58A9.67,9.67,0,0,1,73.25,155.71Z"/><path class="cls-1" d="M484.25,319.68a14.75,14.75,0,1,0-14.89-14.75A14.83,14.83,0,0,0,484.25,319.68Zm0-24.33a9.58,9.58,0,1,1-9.73,9.58A9.66,9.66,0,0,1,484.25,295.35Z"/><path class="cls-1" d="M286,545.47a14.75,14.75,0,1,0-14.89-14.75A14.83,14.83,0,0,0,286,545.47Zm0-24.33a9.58,9.58,0,1,1-9.72,9.58A9.67,9.67,0,0,1,286,521.14Z"/><path class="cls-1" d="M377.72,84a14.75,14.75,0,1,0-14.88-14.74A14.83,14.83,0,0,0,377.72,84Zm0-24.32A9.58,9.58,0,1,1,368,69.28,9.67,9.67,0,0,1,377.72,59.7Z"/><path class="cls-1" d="M236.74,506.21a8.67,8.67,0,0,0-8.26-8.19H110.13a8.2,8.2,0,1,0,0,16.4H228.48A8.68,8.68,0,0,0,236.74,506.21Zm-126.61,3a3,3,0,1,1,0-6.06H228.48a3,3,0,1,1,0,6.06Z"/><path class="cls-1" d="M430.61,167.19h28.56V114.68H430.61Zm5.17-47.34H454V162H435.78Z"/><path class="cls-1" d="M430.61,203.17h28.56V174.33H430.61Zm5.17-23.67H454V198H435.78Z"/><path class="cls-1" d="M87.44,114.47H58.61V143H87.44Zm-5.16,23.4H63.78V119.64h18.5Z"/><path class="cls-1" d="M320.67,459.3c0-4.05,0-4.05-3.86-2.48a27.57,27.57,0,0,1-35.91-15.33c-4.78-12.42-1.45-23,7.69-32.17q52.77-52.79,105.55-105.56c4.08-4.08,8.59-7.33,14.26-8.72,1.94-.48,2.68-1.48,2.67-3.57Q411,206.63,411,121.79c0-5-2.3-7.21-7.38-7.23-21.15,0-42.31,0-63.46-.06-2.43,0-3.14.94-3.09,3.22.11,4.74.11,9.5,0,14.25-.19,9-5,13.82-14,13.82-44.45.05-88.91-.1-133.36.12-9.21.05-14.13-6.83-13.92-14,.13-4.41-.16-8.84.08-13.23.18-3.29-1-4.25-4.23-4.23-20,.13-40.05.06-60.07.07-8.15,0-9.75,1.57-9.75,9.64V302q0,89.43,0,178.84c0,6.56,1.9,8.69,8,8.69q103.67,0,207.34.06c2.64,0,3.58-.8,3.54-3.49C320.59,477.17,320.68,468.23,320.67,459.3ZM363.2,317.64a18.38,18.38,0,0,1-4.7.43q-53.1,0-106.21,0a20.9,20.9,0,0,1-4-.28,5.35,5.35,0,0,1-.34-10.52,16.46,16.46,0,0,1,4-.3H359.17a11.92,11.92,0,0,1,4.35.47,5,5,0,0,1,3.51,5.22A4.86,4.86,0,0,1,363.2,317.64Zm-4.08-55.42a15.12,15.12,0,0,1,3.36.3c3,.71,4.7,2.69,4.5,5.85s-2.14,4.63-5,5.19a17.27,17.27,0,0,1-3.38.12H251.47c-1.7,0-3.39,0-4.92-.93a5.48,5.48,0,0,1,.73-9.93,11.62,11.62,0,0,1,4.33-.63Q305.37,262.21,359.12,262.22ZM147.82,175.7c.9-3.45,3.65-4.36,6.8-4.38,7.8,0,15.6,0,23.4,0h27.13c.91,0,1.82,0,2.71,0,3.73.34,6.37,2.9,6.18,5.93s-2.8,5.46-6.58,5.5c-7.91.06-15.82,0-23.74,0h-3.05c-8.82,0-17.64,0-26.45,0C149.67,182.74,146.81,179.55,147.82,175.7Zm4.07,25.77a19.44,19.44,0,0,1,4.05-.22q26.79,0,53.58,0,26.61,0,53.24,0a17,17,0,0,1,3.71.19,5.35,5.35,0,0,1,4.6,5.48c.05,2.88-1.58,4.65-4.31,5.28a18.1,18.1,0,0,1-4,.35q-53.42,0-106.82,0a22.7,22.7,0,0,1-4-.31,5,5,0,0,1-4.47-5.18A5.33,5.33,0,0,1,151.89,201.47Zm64.23,223.14c0,6-2.12,8.1-8.23,8.1q-27.15,0-54.31,0c-6,0-7.85-1.95-7.87-8,0-9.05,0-18.1,0-27.15,0-9.28,0-18.56,0-27.83,0-5.64,1.86-7.52,7.58-7.54q27.48-.07,55,0c5.84,0,7.84,2.13,7.85,8.09Q216.15,397.45,216.12,424.61Zm0-106.45c0,5-2.32,7.25-7.3,7.27-9.27,0-18.54,0-27.82,0s-18.55,0-27.82,0c-5.31,0-7.44-2.07-7.45-7.34q0-27.83,0-55.65c0-5.36,1.94-7.4,7.39-7.43q28-.11,56,0c4.86,0,7,2.19,7,7.15Q216.19,290.16,216.11,318.16Zm46.26,107c-.22,0-.45,0-.67,0h-6.09v-.05c-2.25,0-4.51.14-6.75,0a5.39,5.39,0,0,1-5.19-5.23,5.32,5.32,0,0,1,4.75-5.64,60.55,60.55,0,0,1,14.49,0,5.3,5.3,0,0,1,4.68,5.68C267.49,422.79,265.45,424.83,262.37,425.2Zm4.33-44.58c-5.53,0-11.06.06-16.58,0-4.39-.06-6.57-2-6.55-5.56s2.42-5.51,6.7-5.53q16.59-.08,33.18,0c4.2,0,6.63,2.23,6.57,5.67s-2.33,5.35-6.39,5.41C278,380.68,272.35,380.62,266.7,380.62Z"/><path class="cls-1" d="M497.43,442.55q-39.36-39.1-78.54-78.38c-2.31-2.32-3.46-2.38-5.78-.06Q373.69,403.64,334.06,443a6.88,6.88,0,0,0-2.3,5.34c.07,27,0,54.07.05,81.11,0,9,4.16,13.06,13.13,13.07H486.47c9.68,0,13.51-3.84,13.51-13.6,0-26.7,0-53.4.06-80.1A8,8,0,0,0,497.43,442.55Zm-20.33,28c-.54,35.61-30.57,61.16-63.37,60.12-32.31-1-59.27-28.33-58.88-61.83s27.77-60.69,60.9-60.42C450.38,408.73,477.63,436.16,477.1,470.57Z"/><path class="cls-1" d="M535.53,417.51Q482.15,364.18,428.8,310.84c-7.93-7.93-17.86-7.85-25.79.09q-18.31,18.38-36.67,36.72Q331.2,382.79,296,417.9c-5.19,5.17-7.3,11.16-5.09,18.2,3.84,12.24,19.09,15.15,28.55,5.67q46.83-46.92,93.69-93.8c2.19-2.2,3.45-2.18,5.63,0q30,30.21,60.18,60.24,16.9,16.9,33.78,33.86c5.27,5.27,12.45,6.81,18.68,4.1a17.14,17.14,0,0,0,10.2-15.54C541.65,425.31,539.19,421.17,535.53,417.51Z"/><path class="cls-1" d="M187.05,130c0,4.52,0,4.54,4.52,4.54H321.13c4.61,0,4.62,0,4.62-4.73,0-14.25-.06-28.49.05-42.74,0-2.89-.82-4-3.85-4q-65.44.1-130.91,0c-3.2,0-4.06,1.16-4,4.19C187.12,101.48,187.05,115.73,187.05,130Z"/><path class="cls-1" d="M204.69,397.65c0-7-.07-14,0-21,0-2.29-.61-3.17-3-3.16q-20.88.15-41.74,0c-2.44,0-3.1,1-3.09,3.21q.09,20.86,0,41.74c0,2.25.8,2.89,3,2.88q21-.1,42.07,0c2.27,0,2.89-.77,2.85-2.95C204.62,411.45,204.69,404.55,204.69,397.65Zm-4.95-7.84a11.92,11.92,0,0,1-1.85,2.4c-6.22,6.26-12.47,12.47-18.68,18.73a6.13,6.13,0,0,1-4.09,2.15c-4.22-.1-14.07-10.49-13.94-14.35a5.55,5.55,0,0,1,8.27-4.47,8.65,8.65,0,0,1,1.37,1c4.45,3.64,4.45,3.64,8.61-.5,3.45-3.43,6.91-6.85,10.32-10.32a7,7,0,0,1,5.69-2.49A5.15,5.15,0,0,1,199.74,389.81Z"/><path class="cls-1" d="M204.73,269.47c0-2.28-.6-3.22-3-3.2q-20.85.12-41.72,0c-2.37,0-3.14.87-3.13,3.2q.1,20.68,0,41.39c0,2.34.74,3.18,3.12,3.14,6.9-.12,13.8,0,20.7,0s13.79-.08,20.69,0c2.36,0,3.43-.43,3.4-3.14C204.63,297.07,204.65,283.27,204.73,269.47Zm-6.35,15.25c-6.21,6.26-12.39,12.55-18.69,18.71-3.48,3.4-6.58,3.25-10-.23q-3.45-3.51-6.74-7.15c-2.46-2.72-2.54-6.1-.3-8.19s6-1.92,8.53.56c3.82,3.68,3.82,3.68,7.49,0,4-4,8-8,12-11.94,1.84-1.78,4-2.53,6.51-1.37a5.73,5.73,0,0,1,3.36,4.93A7,7,0,0,1,198.38,284.72Z"/><path class="cls-1" d="M415.27,419.77c-27.15.29-49.47,22.76-49.33,49.66.14,27.42,23,50.39,49.77,50.07,28.16-.33,50.21-22.57,50-50.38A49.31,49.31,0,0,0,415.27,419.77Zm8.9,82c-1.75.8-2.61,1.63-2.75,3.65-.23,3.26-2.6,5.44-5.51,5.26-3.08-.19-5.14-1.85-5.41-5-.17-2.07-1-3-3-3.86a19.78,19.78,0,0,1-11.4-17.51c0-3.43,1.94-5.84,5-6.21,2.87-.35,5.38,1.6,6.08,5.08.83,4.2,2.15,7.89,7,8.94,4.59,1,8.71-1.63,10-6.41a7.94,7.94,0,0,0-5.59-9.79,20.94,20.94,0,0,0-4.31-.84,20,20,0,0,1-18-16.3c-1.64-8.26,3.08-17.67,11-21.38,1.95-.92,3.06-1.83,3.2-4.12.2-3.21,2.39-4.79,5.42-5a5.25,5.25,0,0,1,5.5,5.26c.09,2.25,1.2,3.05,3,3.89,6.83,3.18,10.5,8.66,11.25,16.12.39,3.89-1.49,6.58-4.77,7s-5.71-1.61-6.37-5.51c-.74-4.35-3.26-7.32-7.11-8.06-3.63-.7-6.37.89-8.46,3.75-3.36,4.61-.6,11.72,5.07,12.72,4.89.86,9.79,1.22,14,4.53A19.88,19.88,0,0,1,424.17,501.79Z"/></svg>