<svg id="Capa_1" data-name="Capa 1" xmlns="http://www.w3.org/2000/svg" viewBox="0 0 600 600">
  <defs>
    <style>
      .cls-1 {
        fill: #b17456;
      }
    </style>
  </defs>
  <g>
    <g id="_247_Architect_Circle_Compass_Measure_Tool" data-name="247, Architect, Circle, Compass, Measure, Tool">
      <path class="cls-1" d="M527.13,410.4H425.52L359.38,242.67a6.47,6.47,0,0,0-5.76-3.79h-.95v-41.7a6.16,6.16,0,0,0-5.76-5.69h-4.79a57,57,0,0,0,11.5-35.06c0-19.9-10.54-38.85-27.8-50.22V74.94c0-18-15.33-33.17-33.55-33.17s-33.55,15.16-33.55,33.17v31.27c-17.25,11.37-27.8,30.32-27.8,50.22a59.07,59.07,0,0,0,11.51,35.06h-3.84a6.16,6.16,0,0,0-5.75,5.69v41.7h-1a6.47,6.47,0,0,0-5.75,3.79L158.07,417H59.33a5.69,5.69,0,1,0,0,11.37h93.94l-7.66,19c-1,.95-1,2.85,0,4.74l26.84,65.39L161,546.86H119.72a5.69,5.69,0,1,0,0,11.37h347a6.15,6.15,0,0,0,5.75-5.69,5.48,5.48,0,0,0-5.75-5.68H424.57l-11.51-29.38,26.84-65.39c1-.95,1-2.84,0-4.74l-9.59-24.63h96.82a6.16,6.16,0,0,0,5.76-5.69C532.89,414.19,530,410.4,527.13,410.4ZM291.31,251.19h3.84l63.27,160.16H328.7C325.82,394.29,311.45,382,293.23,382a36.2,36.2,0,0,0-36.42,36H225.17ZM173.41,546.86l11.5-27.48h0l36.42-91h38.35a35.09,35.09,0,0,0,33.55,23.69,36,36,0,0,0,35.47-29.37h34.51l38.35,96.66,10.54,27.48Z"/>
    </g>
    <g>
      <path class="cls-1" d="M293.76,465.17a14.75,14.75,0,1,0,14.88,14.75A14.83,14.83,0,0,0,293.76,465.17Zm0,24.33a9.58,9.58,0,1,1,9.72-9.58A9.66,9.66,0,0,1,293.76,489.5Z"/>
      <path class="cls-1" d="M293.76,500.73a14.74,14.74,0,1,0,14.88,14.73A14.81,14.81,0,0,0,293.76,500.73Zm0,24.31a9.58,9.58,0,1,1,9.72-9.58A9.66,9.66,0,0,1,293.76,525Z"/>
      <path class="cls-1" d="M479.91,68.56H427.44V97.11h52.47ZM474.75,92H432.61V73.73h42.14Z"/>
      <path class="cls-1" d="M514.93,68.56H486.1V97.11h28.83ZM509.76,92H491.27V73.73h18.49Z"/>
      <path class="cls-1" d="M101.42,290.26H48.94v28.55h52.48Zm-5.17,23.38H54.1V295.42H96.25Z"/>
      <path class="cls-1" d="M136.42,290.26H107.61v28.55h28.81Zm-5.16,23.38H112.77V295.42h18.49Z"/>
      <path class="cls-1" d="M501,167.27a14.74,14.74,0,1,0-14.89-14.74A14.83,14.83,0,0,0,501,167.27ZM501,143a9.58,9.58,0,1,1-9.72,9.58A9.65,9.65,0,0,1,501,143Z"/>
      <path class="cls-1" d="M402.83,222.68a14.89,14.89,0,1,0,14.89-14.74A14.84,14.84,0,0,0,402.83,222.68Zm24.61,0a9.73,9.73,0,1,1-9.72-9.58A9.66,9.66,0,0,1,427.44,222.68Z"/>
      <path class="cls-1" d="M154.92,117.92a14.88,14.88,0,1,0,14.89-14.74A14.83,14.83,0,0,0,154.92,117.92Zm24.6,0a9.72,9.72,0,1,1-9.71-9.58A9.65,9.65,0,0,1,179.52,117.92Z"/>
      <path class="cls-1" d="M95.31,363a14.88,14.88,0,1,0,14.88-14.75A14.82,14.82,0,0,0,95.31,363Zm24.6,0a9.72,9.72,0,1,1-9.72-9.59A9.65,9.65,0,0,1,119.91,363Z"/>
      <path class="cls-1" d="M512.35,477.34a14.74,14.74,0,1,0,14.87,14.74A14.83,14.83,0,0,0,512.35,477.34Zm0,24.32a9.58,9.58,0,1,1,9.71-9.58A9.67,9.67,0,0,1,512.35,501.66Z"/>
      <path class="cls-1" d="M98.83,477.34a14.74,14.74,0,1,0,14.89,14.74A14.83,14.83,0,0,0,98.83,477.34Zm0,24.32a9.58,9.58,0,1,1,9.73-9.58A9.67,9.67,0,0,1,98.83,501.66Z"/>
      <path class="cls-1" d="M110.19,219.65a31.58,31.58,0,1,0-31.91-31.58A31.79,31.79,0,0,0,110.19,219.65Zm0-58a26.42,26.42,0,1,1-26.75,26.41A26.61,26.61,0,0,1,110.19,161.66Z"/>
      <path class="cls-1" d="M506.66,284.65a38.13,38.13,0,1,0,38.55,38.12C545.21,301.75,527.92,284.65,506.66,284.65Zm0,71.09a33,33,0,1,1,33.39-33A33.21,33.21,0,0,1,506.66,355.74Z"/>
    </g>
  </g>
</svg>
