<svg id="Capa_1" data-name="Capa 1" xmlns="http://www.w3.org/2000/svg" viewBox="0 0 600 600">
  <defs>
    <style>
      .cls-1 {
        fill: #b17456;
      }
    </style>
  </defs>
  <g>
    <path class="cls-1" d="M580.81,248.82a14,14,0,1,0,14.14,14A14.26,14.26,0,0,0,580.81,248.82Zm0,23.09a9.1,9.1,0,1,1,9.23-9.09A9.4,9.4,0,0,1,580.81,271.91Z"/>
    <path class="cls-1" d="M61.9,401.08c0,11.21,8.22,19.34,19.54,19.34S101,412.29,101,401.08a19.53,19.53,0,0,0-39.06,0Zm34.16,0c0,8.37-6.15,14.43-14.62,14.43s-14.63-6.06-14.63-14.43a14.63,14.63,0,0,1,29.25,0Z"/>
    <path class="cls-1" d="M461.12,126.77l19.18-19.18L445.05,72.35,425.87,91.52Zm12.24-19.18-12.24,12.24L432.81,91.52l12.24-12.24Z"/>
    <path class="cls-1" d="M465.27,130.93l19.37,19.36,19.17-19.18-19.36-19.36Zm19.37,12.42-12.43-12.42,12.24-12.25,12.43,12.43Z"/>
    <path class="cls-1" d="M62.32,267.79a14.14,14.14,0,1,0-14.14,14A14.1,14.1,0,0,0,62.32,267.79Zm-23.38,0a9.24,9.24,0,1,1,9.24,9.09A9.18,9.18,0,0,1,38.94,267.79Z"/>
    <path class="cls-1" d="M98.51,151.49a14,14,0,1,0,14.14,14A14.08,14.08,0,0,0,98.51,151.49Zm0,23.1a9.1,9.1,0,1,1,9.24-9.1A9.17,9.17,0,0,1,98.51,174.59Z"/>
    <path class="cls-1" d="M500.34,512.31a14,14,0,1,0-14.13-14A14.1,14.1,0,0,0,500.34,512.31Zm0-23.1a9.1,9.1,0,1,1-9.22,9.09A9.17,9.17,0,0,1,500.34,489.21Z"/>
    <path class="cls-1" d="M580.81,354.2a14,14,0,1,0,14.14,14A14.09,14.09,0,0,0,580.81,354.2Zm0,23.09A9.1,9.1,0,1,1,590,368.2,9.17,9.17,0,0,1,580.81,377.29Z"/>
    <path class="cls-1" d="M151.31,505.93a14.14,14.14,0,1,0-14.14,14A14.09,14.09,0,0,0,151.31,505.93Zm-23.37,0a9.23,9.23,0,1,1,9.23,9.1A9.17,9.17,0,0,1,127.94,505.93Z"/>
    <path class="cls-1" d="M424.3,492.82H311.93a7.79,7.79,0,1,0,0,15.57H424.3a7.79,7.79,0,1,0,0-15.57Zm0,10.66H311.93a2.88,2.88,0,1,1,0-5.76H424.3a2.88,2.88,0,1,1,0,5.76Z"/>
    <path class="cls-1" d="M382.29,533.48a8.23,8.23,0,0,0,7.85,7.77h79.11a7.78,7.78,0,1,0,0-15.55H390.14A8.24,8.24,0,0,0,382.29,533.48Zm89.9,0a3.35,3.35,0,0,1-2.94,2.87H390.14a2.88,2.88,0,1,1,0-5.75h79.11A3.35,3.35,0,0,1,472.19,533.48Z"/>
    <path class="cls-1" d="M102.08,451.81c-.57,3.4,1,6.85,5.39,7.5l15.12,2.22c0,.28,0,.56,0,.85a7.74,7.74,0,0,0,7.64,7.63l41.88-.49,1.07,2.37c1.84,4.06,7,4.3,10.45,2.74l6.92-3.13,26.6,3.9c3.65.53,8.75-.92,9.4-5.34.05-.39.11-.79.17-1.18l292-3.44a7.76,7.76,0,0,0,7.64-7.64q-.66-55.43-1.31-110.86a7.74,7.74,0,0,0-7.63-7.64l-35.2.42,55.47-25.07c4.06-1.83,4.29-7,2.74-10.44l-45.65-101c-1.84-4.06-7-4.3-10.45-2.74l-15.79,7.14,19.3-18.6a7.73,7.73,0,0,0,0-10.79L411,98.32a7.74,7.74,0,0,0-10.79,0l-35.33,34L261.5,231.87q10.72-73.12,21.44-146.23c.53-3.65-.91-8.74-5.33-9.39L167.91,60.16c-3.64-.54-8.74.92-9.39,5.33Q155,89.75,151.4,114q-24.63,168-49.27,335.9A8.72,8.72,0,0,0,102.08,451.81ZM509.9,354.66q.56,47.8,1.12,95.6-20.65.23-41.3.48l-239.45,2.82,217.26-98.17ZM484.41,217.07q19.71,43.59,39.4,87.19l-38.49,17.39L231.5,436.33c0-.18.06-.35.08-.52l11.76-11.32L436,239Q460.2,228,484.41,217.07ZM405.35,114.52l66.32,68.85-29.92,28.82L235.2,411.12q11.34-77.28,22.67-154.57Q331.63,185.54,405.35,114.52ZM124,405.46q24.15-164.67,48.3-329.34L267,90,261.1,130.1,212.8,459.43l-94.7-13.88Z"/>
    <path class="cls-1" d="M171,387a25.58,25.58,0,1,0,25.58,25.58A25.61,25.61,0,0,0,171,387Zm0,43a17.44,17.44,0,1,1,17.43-17.43A17.45,17.45,0,0,1,171,430Z"/>
  </g>
</svg>
