<svg id="Capa_1" data-name="Capa 1" xmlns="http://www.w3.org/2000/svg" viewBox="0 0 600 600">
  <defs>
    <style>
      .cls-1 {
        fill: #b17456;
      }
    </style>
  </defs>
  <g>
    <path class="cls-1" d="M67.71,394.32c10.78,0,20.67,5.33,27.86,13.33V91.3c0-16-11.68-28.43-27.86-28.43-15.29,0-27.87,13.32-27.87,30.21V407.65C47,399.65,56.92,394.32,67.71,394.32Z"/>
    <path class="cls-1" d="M230.41,324.12a5.77,5.77,0,0,1,5.39-5.34h22.47a5.34,5.34,0,1,1,0,10.67H242.09v22.22h67.42V285H259.17a5.34,5.34,0,1,1,0-10.67h56.64a5.77,5.77,0,0,1,5.39,5.34v72h34.16V301.91a5.76,5.76,0,0,1,5.39-5.34h22.47a5.76,5.76,0,0,1,5.39,5.34c0,2.66-2.69,5.32-6.29,5.32H365.24v44.44h67.42V324.12a5.4,5.4,0,0,1,10.79,0v27.55h34.16V285H427.27a5.76,5.76,0,0,1-5.39-5.33V235.26a5.39,5.39,0,0,1,10.78,0v39.09h44.95V185.49h-79.1v60.43h.89a5.76,5.76,0,0,1-5.39,5.33H359.85a5.33,5.33,0,1,1,0-10.66h27.87v-56H207.94v56h84.49a5.33,5.33,0,1,1,0,10.66H207.94V351.67h22.47Zm96.18-89.75a11.55,11.55,0,1,1-11.69,11.55A11.83,11.83,0,0,1,326.59,234.37Z"/>
    <path class="cls-1" d="M155.55,540.94c0-7.89-7.6-14-14.14-14a14,14,0,1,0,14.14,14Zm-23.37,0a9.4,9.4,0,0,1,9.23-9.1c4.07,0,9.24,4.28,9.24,9.1a9.24,9.24,0,0,1-18.47,0Z"/>
    <path class="cls-1" d="M68.6,405.87c-14.38,0-27,11.56-27.87,27.55.91,30.21,21.58,52.42,50.34,52.42H535.14V452.08H214.23a5.77,5.77,0,0,1-5.4-5.33c0-2.67,1.8-6.22,5.4-6.22h320v-311h-382v249.7a5.39,5.39,0,0,1-10.78,0V129.51H107.25V435.2a5.39,5.39,0,0,1-10.78,0C95.57,419.2,83,405.87,68.6,405.87ZM197.15,180.16a5.76,5.76,0,0,1,5.39-5.33H483.9a5.76,5.76,0,0,1,5.39,5.33V357.89a5.76,5.76,0,0,1-5.39,5.32H202.54a5.76,5.76,0,0,1-5.39-5.32ZM180.07,434.3a11.56,11.56,0,1,1-11.69,11.55A11.84,11.84,0,0,1,180.07,434.3Zm-33.26-33.76a11.55,11.55,0,1,1-11.69,11.55A11.83,11.83,0,0,1,146.81,400.54Zm0,33.76a11.56,11.56,0,1,1-11.69,11.55A11.83,11.83,0,0,1,146.81,434.3Z"/>
    <path class="cls-1" d="M466.82,87.53a14,14,0,1,0-14.14-14A14.26,14.26,0,0,0,466.82,87.53Zm0-23.1a9.1,9.1,0,1,1-9.23,9.1A9.4,9.4,0,0,1,466.82,64.43Z"/>
    <path class="cls-1" d="M294.89,82.63H245v27.12h49.86ZM290,104.84H249.93V87.53H290Z"/>
    <path class="cls-1" d="M329,82.63H301.66v27.12H329Zm-4.9,22.21H306.57V87.53h17.57Z"/>
    <path class="cls-1" d="M391.56,543.39h27.37V516.27H391.56Zm4.91-22.22H414v17.31H396.47Z"/>
    <path class="cls-1" d="M452.19,516.27H424.82v27.12h27.37Zm-4.9,22.21H429.73V521.17h17.56Z"/>
    <path class="cls-1" d="M459,543.39h27.38V516.27H459Zm4.91-22.22h17.56v17.31H463.88Z"/>
    <path class="cls-1" d="M306.57,540.94a14.14,14.14,0,1,0-14.14,14A14.08,14.08,0,0,0,306.57,540.94Zm-23.37,0a9.23,9.23,0,1,1,9.23,9.1A9.17,9.17,0,0,1,283.2,540.94Z"/>
    <path class="cls-1" d="M394,88.42a14,14,0,1,0-14.14-14A14.08,14.08,0,0,0,394,88.42Zm0-23.11a9.11,9.11,0,1,1-9.23,9.11A9.18,9.18,0,0,1,394,65.31Z"/>
    <path class="cls-1" d="M157.6,88.42a14,14,0,1,0-14.14-14A14.08,14.08,0,0,0,157.6,88.42Zm0-23.11a9.11,9.11,0,1,1-9.24,9.11A9.18,9.18,0,0,1,157.6,65.31Z"/>
  </g>
</svg>
