<svg id="Capa_1" data-name="Capa 1" xmlns="http://www.w3.org/2000/svg" viewBox="0 0 600 600">
  <defs>
    <style>
      .cls-1 {
        fill: #b17456;
      }
    </style>
  </defs>
  <g>
    <polygon class="cls-1" points="392.99 93.35 392.99 150.66 450.31 150.66 392.99 93.35"/>
    <rect class="cls-1" x="190.94" y="123.48" width="156.5" height="27.92"/>
    <rect class="cls-1" x="190.94" y="233.68" width="229.97" height="46.29"/>
    <path class="cls-1" d="M457.65,160.21H388.59a4.74,4.74,0,0,1-4.41-4.4V86.74h-230V500.4H457.65ZM185.8,114.66H351.11a4.73,4.73,0,0,1,4.41,4.41v36.74a4.74,4.74,0,0,1-4.41,4.4H186.53a4.75,4.75,0,0,1-4.41-4.4V119.07h-.73A4.73,4.73,0,0,1,185.8,114.66Zm41.88,77.14a4.74,4.74,0,0,1-4.41,4.41H186.53a4.74,4.74,0,0,1-4.41-4.41,4.24,4.24,0,0,1,4.41-4.4h36.74A4.75,4.75,0,0,1,227.68,191.8ZM185.8,316.72H360.67a4.41,4.41,0,1,1,0,8.81H186.53c-2.94,0-5.14-2.2-5.14-4.41A4.73,4.73,0,0,1,185.8,316.72Zm97,40.4a4.74,4.74,0,0,1-4.4,4.41H186.53a4.75,4.75,0,0,1-4.41-4.41,4.24,4.24,0,0,1,4.41-4.41h91.85A4.74,4.74,0,0,1,282.78,357.12Zm-96.25,32.33H324.66a4.41,4.41,0,0,1,0,8.82H186.53a4.74,4.74,0,0,1-4.41-4.41C181.39,391.65,183.59,389.45,186.53,389.45ZM255.6,430.6a4.74,4.74,0,0,1-4.41,4.4H186.53a4.74,4.74,0,0,1-4.41-4.4,4.23,4.23,0,0,1,4.41-4.41h64.66A4.74,4.74,0,0,1,255.6,430.6Zm169.72,41.88H186.53a4.41,4.41,0,1,1,0-8.82H425.32a4.41,4.41,0,1,1,0,8.82Zm0-36.74H287.19a4.41,4.41,0,0,1,0-8.82H425.32a4.41,4.41,0,1,1,0,8.82Zm0-36.73H360.67a4.41,4.41,0,1,1,0-8.82h64.65a4.41,4.41,0,1,1,0,8.82Zm0-36.75H315.11a4.41,4.41,0,1,1,0-8.81H425.32a4.41,4.41,0,1,1,0,8.81Zm0-36.73H397.4a4.41,4.41,0,1,1,0-8.81h27.92a4.41,4.41,0,1,1,0,8.81Zm4.41-41.15a4.73,4.73,0,0,1-4.41,4.41H186.53a4.74,4.74,0,0,1-4.41-4.41v-55.1a4.74,4.74,0,0,1,4.41-4.41H425.32a4.73,4.73,0,0,1,4.41,4.41ZM425.32,197H260a4.41,4.41,0,0,1,0-8.82H425.32a4.41,4.41,0,1,1,0,8.82Z"/>
    <path class="cls-1" d="M493.77,499.39a14.75,14.75,0,1,0-14.89-14.74A14.83,14.83,0,0,0,493.77,499.39Zm0-24.32a9.58,9.58,0,1,1-9.72,9.58A9.67,9.67,0,0,1,493.77,475.07Z"/>
    <path class="cls-1" d="M365.07,69.19a14.75,14.75,0,1,0-14.88-14.74A14.83,14.83,0,0,0,365.07,69.19Zm0-24.32a9.58,9.58,0,1,1-9.72,9.58A9.67,9.67,0,0,1,365.07,44.87Z"/>
    <path class="cls-1" d="M493.78,310.6a8.67,8.67,0,0,0,8.19-8.27V184a8.2,8.2,0,1,0-16.4,0V302.33A8.68,8.68,0,0,0,493.78,310.6Zm-3-126.62a3,3,0,1,1,6.06,0V302.33a3,3,0,1,1-6.06,0Z"/>
    <path class="cls-1" d="M119.9,120.14H91.34v52.5H119.9Zm-5.17,47.34H96.5V125.3h18.23Z"/>
    <path class="cls-1" d="M119.9,84.15H91.34V113H119.9Zm-5.17,23.68H96.5V89.32h18.23Z"/>
    <path class="cls-1" d="M180.45,531.73H151.62V560.3h28.83Zm-5.17,23.4h-18.5V536.9h18.5Z"/>
    <path class="cls-1" d="M186.65,560.3h28.83V531.73H186.65Zm5.17-23.4h18.5v18.23h-18.5Z"/>
    <path class="cls-1" d="M251.46,531.73H222.63V560.3h28.83Zm-5.17,23.4h-18.5V536.9h18.5Z"/>
  </g>
</svg>
