<svg id="Capa_1" data-name="Capa 1" xmlns="http://www.w3.org/2000/svg" viewBox="0 0 600 600">
  <defs>
    <style>
      .cls-1 {
        fill: #b17456;
      }
    </style>
  </defs>
  <g>
    <rect class="cls-1" x="56" y="275.72" width="70.19" height="46.25"/>
    <polygon class="cls-1" points="56 263.69 131.8 263.69 172.98 263.69 172.98 217.44 56 217.44 56 263.69"/>
    <polygon class="cls-1" points="137.41 275.71 137.41 321.97 201.99 321.97 231 321.97 231 275.71 178.59 275.71 137.41 275.71"/>
    <polygon class="cls-1" points="56 379.33 155.19 379.33 196.37 379.33 196.37 333.07 131.8 333.07 56 333.07 56 379.33"/>
    <polygon class="cls-1" points="149.58 437.61 149.58 391.35 56 391.35 56 437.61 120.57 437.61 149.58 437.61"/>
    <polygon class="cls-1" points="207.6 379.33 237.55 379.33 277.79 379.33 277.79 333.07 237.55 333.07 207.6 333.07 207.6 379.33"/>
    <polygon class="cls-1" points="207.6 448.71 207.6 494.96 301.19 494.96 301.19 448.71 237.55 448.71 207.6 448.71"/>
    <rect class="cls-1" x="56" y="448.71" width="58.96" height="46.25"/>
    <polygon class="cls-1" points="324.58 437.61 324.58 391.35 284.34 391.35 243.16 391.35 243.16 437.61 307.73 437.61 324.58 437.61"/>
    <polygon class="cls-1" points="231 437.61 231 391.35 201.99 391.35 160.81 391.35 160.81 437.61 201.99 437.61 231 437.61"/>
    <rect class="cls-1" x="441.56" y="448.71" width="70.19" height="46.25"/>
    <polygon class="cls-1" points="196.37 506.99 120.57 506.99 56 506.99 56 553.25 196.37 553.25 196.37 506.99"/>
    <path class="cls-1" d="M516,98.57h28V70.81H516Zm4.62-23.13h18.78v18.5H520.6Z"/>
    <polygon class="cls-1" points="406.93 506.99 406.93 553.25 511.74 553.25 511.74 506.99 435.94 506.99 406.93 506.99"/>
    <polygon class="cls-1" points="196.37 448.71 155.19 448.71 126.18 448.71 126.18 494.96 196.37 494.96 196.37 448.71"/>
    <polygon class="cls-1" points="430.33 494.96 430.33 448.71 331.13 448.71 313.35 448.71 313.35 494.96 318.96 494.96 401.32 494.96 430.33 494.96"/>
    <polygon class="cls-1" points="313.35 506.99 307.73 506.99 207.6 506.99 207.6 553.25 313.35 553.25 313.35 506.99"/>
    <rect class="cls-1" x="324.58" y="506.99" width="70.19" height="46.25"/>
    <path class="cls-1" d="M479.42,338.63a8.3,8.3,0,0,0-7.91-7.87H331.13a7.87,7.87,0,1,0,0,15.73H471.51A8.3,8.3,0,0,0,479.42,338.63Zm-151.6,0a3.72,3.72,0,0,1,3.31-3.25H471.51a3.7,3.7,0,0,1,3.29,3.25,3.77,3.77,0,0,1-3.29,3.24H331.13A3.72,3.72,0,0,1,327.82,338.63Z"/>
    <path class="cls-1" d="M518.29,365.91H448.11a7.87,7.87,0,1,0,0,15.73h70.18a7.87,7.87,0,1,0,0-15.73Zm0,11.1H448.11a3.24,3.24,0,1,1,0-6.47h70.18a3.24,3.24,0,1,1,0,6.47Z"/>
    <path class="cls-1" d="M508.44,70.81H457V98.57h51.42Zm-4.63,23.13H461.65V75.44h42.16Z"/>
    <path class="cls-1" d="M94.86,155.92h51.41V128.17H94.86Zm4.63-23.13h42.16V151.3H99.49Z"/>
    <path class="cls-1" d="M152.88,155.92h28V128.17h-28Zm4.62-23.13h18.78V151.3H157.5Z"/>
    <path class="cls-1" d="M506.12,324.28a14.34,14.34,0,1,0,14.48,14.35A14.43,14.43,0,0,0,506.12,324.28Zm0,24.06a9.72,9.72,0,1,1,9.86-9.71A9.79,9.79,0,0,1,506.12,348.34Z"/>
    <path class="cls-1" d="M494.9,139.26a14.34,14.34,0,1,0,14.48,14.35A14.43,14.43,0,0,0,494.9,139.26Zm0,24.06a9.72,9.72,0,1,1,9.85-9.71A9.8,9.8,0,0,1,494.9,163.32Z"/>
    <path class="cls-1" d="M307.73,220.68A14.34,14.34,0,1,0,322.21,235,14.43,14.43,0,0,0,307.73,220.68Zm0,24a9.72,9.72,0,1,1,9.86-9.72A9.8,9.8,0,0,1,307.73,244.73Z"/>
    <path class="cls-1" d="M248.78,75.44A14.34,14.34,0,1,0,234.3,61.1,14.43,14.43,0,0,0,248.78,75.44Zm0-24.06a9.72,9.72,0,1,1-9.86,9.72A9.8,9.8,0,0,1,248.78,51.38Z"/>
    <path class="cls-1" d="M85,69.88A14.35,14.35,0,1,0,99.49,84.22,14.42,14.42,0,0,0,85,69.88Zm0,24.06a9.72,9.72,0,1,1,9.86-9.72A9.8,9.8,0,0,1,85,93.94Z"/>
    <path class="cls-1" d="M490.66,247a31.32,31.32,0,1,0-31.33,31A31.19,31.19,0,0,0,490.66,247ZM459.33,273.4A26.36,26.36,0,1,1,486,247,26.56,26.56,0,0,1,459.33,273.4Z"/>
    <path class="cls-1" d="M263.32,148.05c0,20.31,17.33,37.47,37.86,37.47a37.47,37.47,0,1,0-37.86-37.47Zm37.86-32.84a32.84,32.84,0,1,1,0,65.68c-18,0-33.24-15-33.24-32.84A33.08,33.08,0,0,1,301.18,115.21Z"/>
  </g>
</svg>
