<svg id="Capa_1" data-name="Capa 1" xmlns="http://www.w3.org/2000/svg" viewBox="0 0 600 600">
  <defs>
    <style>
      .cls-1 {
        fill: #b17456;
      }
    </style>
  </defs>
  <path class="cls-1" d="M507.33,84.1H92.67A92.77,92.77,0,0,0,0,176.77V423.23A92.77,92.77,0,0,0,92.67,515.9H507.33A92.77,92.77,0,0,0,600,423.23V176.77A92.77,92.77,0,0,0,507.33,84.1ZM402.09,307.54l163.26-99.86V407.5ZM92.67,118.75H507.33a58.1,58.1,0,0,1,57.27,48.77l-225,137.76a95.78,95.78,0,0,1-79.18,0L35.4,167.52A58.1,58.1,0,0,1,92.67,118.75ZM197.83,307.6,34.65,407.5V207.69Zm309.5,173.64H92.67a58.11,58.11,0,0,1-53.6-35.82L231,327.91l12.19,7.47,1.75.94a130.4,130.4,0,0,0,110.1,0l13.84-8.47,192,117.57A58.11,58.11,0,0,1,507.33,481.24Z"/>
</svg>
