<svg id="Capa_1" data-name="Capa 1" xmlns="http://www.w3.org/2000/svg" viewBox="0 0 600 600"><defs><style>.cls-1{fill:#b17456;}</style></defs><path class="cls-1" d="M458.84,107.13A35.18,35.18,0,1,0,494,142.3,35.17,35.17,0,0,0,458.84,107.13Z"/><path class="cls-1" d="M302.47,152.24C221,152.24,154.7,218.52,154.7,300S221,447.76,302.47,447.76,450.22,381.47,450.22,300,383.93,152.24,302.47,152.24Zm0,242.41A94.65,94.65,0,1,1,397.11,300,94.76,94.76,0,0,1,302.47,394.65Z"/><path class="cls-1" d="M419.77,600H180.22C80.85,600,0,519.15,0,419.78V180.22C0,80.84,80.85,0,180.22,0H419.77C519.14,0,600,80.84,600,180.22V419.78C600,519.15,519.14,600,419.77,600ZM180.22,56.45A123.91,123.91,0,0,0,56.45,180.22V419.78A123.91,123.91,0,0,0,180.22,543.56H419.77A123.92,123.92,0,0,0,543.55,419.78V180.22A123.91,123.91,0,0,0,419.77,56.45Z"/></svg>