<svg id="Capa_1" data-name="Capa 1" xmlns="http://www.w3.org/2000/svg" viewBox="0 0 600 600">
  <defs>
    <style>
      .cls-1 {
        fill: #b17456;
      }
    </style>
  </defs>
  <g>
    <path class="cls-1" d="M584.8,418.14c-40.19-18.62-80.95-36-121.53-53.8-11.95-5.23-21.32-1.71-28.9,8.71-11,15.1-22,30.18-33.64,44.79-18.83,23.67-23.83,25.28-52.15,14.62-84.45-31.77-146-90.41-191.7-166.61-3.24-5.4-1-17,2.8-23.11,7.62-12.27,18.32-22.59,27.35-34,12.41-15.71,13.86-32.36,5.15-50.75C176.7,125.27,163,91.69,146.62,59.5c-5.06-9.91-15.35-19.34-25.52-24C95.94,24,71.66,29.13,51.55,48.11,24.42,73.72,7.3,105.18,1.82,142.27c-6.59,44.61,5.38,86.14,25.45,125C86.33,381.67,178.1,463.44,289.75,524.1c49.66,27,102.52,45.06,164.53,46.5,6.49-.65,17.6-1.2,28.5-3,59.11-9.63,110.43-59.54,116.66-113.17C601.15,439.72,599.65,425,584.8,418.14Z"/>
    <path class="cls-1" d="M516.12,299.44H541C544,137,392.47,34.65,286.64,47.17,286.41,51,285.91,55,286,59s.75,7.82,1.1,11.14C425.06,85.63,501.2,161.53,516.12,299.44Z"/>
    <path class="cls-1" d="M477.94,281C483.4,180.3,386,95.25,300.75,104.06v25.49c42,2.14,77.49,16.49,106.38,45.6S449.71,239.84,451.91,281Z"/>
    <path class="cls-1" d="M318.69,171.85v23.46c48.53,13.74,60.94,26.1,70.67,70.95h24.58C422.36,224.57,371.36,163,318.69,171.85Z"/>
  </g>
</svg>
