<svg id="Capa_1" data-name="Capa 1" xmlns="http://www.w3.org/2000/svg" viewBox="0 0 600 600">
  <defs>
    <style>
      .cls-1 {
        fill: #b17456;
      }
    </style>
  </defs>
  <path class="cls-1" d="M403.71,28.39C357.4,1,307.3-6.29,254.83,5.33c-50.11,11.09-90.64,37.58-120,79.78-32.28,46.4-41,97.72-28.59,152.67,5.18,22.94,13.3,45,22.31,66.65C152.86,362.94,183.3,418.29,216.68,472c23.18,37.29,47.68,73.75,71.64,110.54,3.8,5.84,7.88,11.49,12,17.47.76-1,1.3-1.63,1.77-2.33,20.05-30.1,40.43-60,60.05-90.35a1534.58,1534.58,0,0,0,80-138.62c18.84-37.2,35.71-75.21,47.64-115.29,9.55-32.06,12.39-64.53,5.65-97.34C484,100,452.7,57.41,403.71,28.39ZM299.77,286.15a94.53,94.53,0,0,1,.45-189c52.39.09,94.36,42.56,94.3,95.42C394.45,244.11,351.85,286.2,299.77,286.15Z"/>
</svg>
