<svg id="Capa_1" data-name="Capa 1" xmlns="http://www.w3.org/2000/svg" viewBox="0 0 600 600">
  <defs>
    <style>
      .cls-1 {
        fill: #b17456;
      }
    </style>
  </defs>
  <g>
    <path class="cls-1" d="M302.36,0C138.87,0,5.84,133,5.84,296.52A295.47,295.47,0,0,0,43,439.76L0,600.36l161.42-43.25A295.71,295.71,0,0,0,302.36,593c163.5,0,296.52-133,296.52-296.52S465.86,0,302.36,0Zm0,537A240.12,240.12,0,0,1,179.6,503l-10.16-6.07L79.27,521.1l24-89.66L97.06,421.2A239.87,239.87,0,0,1,61.89,296.52c0-132.6,107.88-240.47,240.47-240.47S542.83,163.92,542.83,296.52,435,537,302.36,537Z"/>
    <path class="cls-1" d="M412.67,337.76c-12.21-7.3-28.09-15.45-42.47-9.57-11,4.51-18.07,21.78-25.22,30.59-3.66,4.53-8,5.24-13.67,3-41.41-16.49-73.14-44.13-96-82.22-3.87-5.92-3.17-10.59,1.49-16.07,6.9-8.13,15.57-17.36,17.44-28.31s-3.27-23.76-7.8-33.51c-5.79-12.46-12.25-30.23-24.73-37.28-11.49-6.49-26.6-2.86-36.82,5.47C167.26,184.2,158.74,206.71,159,229a84,84,0,0,0,2.33,18.79c3.56,14.72,10.37,28.46,18,41.53A326.64,326.64,0,0,0,198.17,318c22.15,30.08,49.7,56.22,81.6,75.77,15.94,9.76,33.11,18.32,50.89,24.19,19.94,6.59,37.71,13.45,59.24,9.36,22.54-4.28,44.77-18.23,53.72-40,2.64-6.43,4-13.59,2.48-20.38C443,352.9,424,344.55,412.67,337.76Z"/>
  </g>
</svg>
